<svg width="30" height="30" viewBox="0 0 30 30" fill="none" xmlns="http://www.w3.org/2000/svg">
<g id="vuesax/outline/note">
<g id="note">
<path id="Vector" d="M20 28.4375H10C6.225 28.4375 4.0625 26.275 4.0625 22.5V10.3125C4.0625 6.375 6.0625 4.375 10 4.375C10.5125 4.375 10.9375 4.8 10.9375 5.3125C10.9375 5.8125 11.1375 6.2875 11.4875 6.6375C11.8375 6.9875 12.3125 7.1875 12.8125 7.1875H17.1875C18.225 7.1875 19.0625 6.35 19.0625 5.3125C19.0625 4.8 19.4875 4.375 20 4.375C23.9375 4.375 25.9375 6.375 25.9375 10.3125V22.5C25.9375 26.275 23.775 28.4375 20 28.4375ZM9.18747 6.27501C7.21247 6.43751 5.9375 7.325 5.9375 10.3125V22.5C5.9375 25.275 7.225 26.5625 10 26.5625H20C22.775 26.5625 24.0625 25.275 24.0625 22.5V10.3125C24.0625 7.325 22.7875 6.45001 20.8125 6.27501C20.3875 7.87501 18.925 9.0625 17.1875 9.0625H12.8125C11.8125 9.0625 10.875 8.67499 10.1625 7.96249C9.68751 7.48749 9.36247 6.91251 9.18747 6.27501Z" fill="#FFB63E"/>
<path id="Vector_2" d="M17.1875 9.0625H12.8125C11.8125 9.0625 10.875 8.67499 10.1625 7.96249C9.45001 7.24999 9.0625 6.3125 9.0625 5.3125C9.0625 3.25 10.75 1.5625 12.8125 1.5625H17.1875C18.1875 1.5625 19.125 1.95001 19.8375 2.66251C20.55 3.37501 20.9375 4.3125 20.9375 5.3125C20.9375 7.375 19.25 9.0625 17.1875 9.0625ZM12.8125 3.4375C11.775 3.4375 10.9375 4.275 10.9375 5.3125C10.9375 5.8125 11.1375 6.2875 11.4875 6.6375C11.8375 6.9875 12.3125 7.1875 12.8125 7.1875H17.1875C18.225 7.1875 19.0625 6.35 19.0625 5.3125C19.0625 4.8125 18.8625 4.3375 18.5125 3.9875C18.1625 3.6375 17.6875 3.4375 17.1875 3.4375H12.8125Z" fill="#FFB63E"/>
<path id="Vector_3" d="M15 17.1875H10C9.4875 17.1875 9.0625 16.7625 9.0625 16.25C9.0625 15.7375 9.4875 15.3125 10 15.3125H15C15.5125 15.3125 15.9375 15.7375 15.9375 16.25C15.9375 16.7625 15.5125 17.1875 15 17.1875Z" fill="#FFB63E"/>
<path id="Vector_4" d="M20 22.1875H10C9.4875 22.1875 9.0625 21.7625 9.0625 21.25C9.0625 20.7375 9.4875 20.3125 10 20.3125H20C20.5125 20.3125 20.9375 20.7375 20.9375 21.25C20.9375 21.7625 20.5125 22.1875 20 22.1875Z" fill="#FFB63E"/>
</g>
</g>
</svg>
