<svg width="100" height="100" viewBox="0 0 100 100" fill="none" xmlns="http://www.w3.org/2000/svg">
<g id="exclamation-mark_3588294 1">
<g id="Icons">
<g id="Group">
<g id="Group_2">
<path id="Vector" d="M50 90.625C27.5641 90.625 9.375 72.4359 9.375 50C9.375 27.5641 27.5641 9.375 50 9.375C72.4359 9.375 90.625 27.5641 90.625 50C90.625 72.4359 72.4359 90.625 50 90.625Z" fill="#FA6450"/>
</g>
<g id="Group_3">
<path id="Vector_2" d="M15.625 50C15.625 28.6156 32.15 11.1031 53.125 9.50625C52.0922 9.42813 51.0531 9.375 50 9.375C27.5641 9.375 9.375 27.5641 9.375 50C9.375 72.4359 27.5641 90.625 50 90.625C51.0531 90.625 52.0922 90.5719 53.125 90.4938C32.15 88.8969 15.625 71.3844 15.625 50Z" fill="#DC4632"/>
</g>
<g id="Group_4">
<path id="Vector_3" d="M50 59.375C46.5484 59.375 43.75 56.5766 43.75 53.125V28.125C43.75 24.6734 46.5484 21.875 50 21.875C53.4516 21.875 56.25 24.6734 56.25 28.125V53.125C56.25 56.5766 53.4516 59.375 50 59.375Z" fill="#F0F0F0"/>
</g>
<g id="Group_5">
<path id="Vector_4" d="M50 78.125C46.5484 78.125 43.75 75.3266 43.75 71.875C43.75 68.4234 46.5484 65.625 50 65.625C53.4516 65.625 56.25 68.4234 56.25 71.875C56.25 75.3266 53.4516 78.125 50 78.125Z" fill="#F0F0F0"/>
</g>
</g>
</g>
</g>
</svg>
