<svg width="553" height="482" viewBox="0 0 553 482" fill="none" xmlns="http://www.w3.org/2000/svg">
<g clip-path="url(#clip0_41_12247)">
<path d="M403.352 155.213H36.1407C27.4442 155.213 20.3943 162.263 20.3943 170.959V244.39C20.3943 253.086 27.4442 260.136 36.1407 260.136H403.352C412.049 260.136 419.099 253.086 419.099 244.39V170.959C419.099 162.263 412.049 155.213 403.352 155.213Z" fill="white"/>
<path d="M403.353 156.659C407.146 156.664 410.782 158.174 413.463 160.858C416.144 163.541 417.651 167.179 417.653 170.972V244.39C417.648 248.181 416.139 251.815 413.459 254.496C410.778 257.177 407.144 258.685 403.353 258.69H36.1408C32.3496 258.685 28.7153 257.177 26.0345 254.496C23.3538 251.815 21.8455 248.181 21.8402 244.39V170.972C21.8455 167.181 23.3538 163.547 26.0345 160.866C28.7153 158.185 32.3496 156.677 36.1408 156.672H403.353M403.353 153.78H36.1408C31.5881 153.78 27.2219 155.589 24.0026 158.808C20.7834 162.027 18.9749 166.393 18.9749 170.946V244.39C18.9749 248.942 20.7834 253.308 24.0026 256.528C27.2219 259.747 31.5881 261.555 36.1408 261.555H403.353C407.905 261.555 412.271 259.747 415.491 256.528C418.71 253.308 420.518 248.942 420.518 244.39V170.972C420.518 166.42 418.71 162.053 415.491 158.834C412.271 155.615 407.905 153.806 403.353 153.806V153.78Z" fill="#161C24"/>
<path d="M18.9487 188.501H420.545" stroke="#161C24" stroke-width="2.89179" stroke-miterlimit="10"/>
<path d="M18.9487 224.741H417.105" stroke="#161C24" stroke-width="2.89179" stroke-miterlimit="10"/>
<path d="M45.219 261.582V481.788" stroke="#161C24" stroke-width="7.23609" stroke-miterlimit="10"/>
<path d="M334.689 286.321H36.0615C27.4817 286.321 20.5264 293.276 20.5264 301.856V321.174C20.5264 329.754 27.4817 336.709 36.0615 336.709H334.689C343.269 336.709 350.224 329.754 350.224 321.174V301.856C350.224 293.276 343.269 286.321 334.689 286.321Z" fill="white"/>
<path d="M334.689 287.899C338.389 287.902 341.936 289.373 344.552 291.988C347.169 294.604 348.641 298.15 348.646 301.849V321.168C348.641 324.868 347.169 328.415 344.553 331.031C341.936 333.647 338.389 335.12 334.689 335.125H36.0618C32.3612 335.121 28.8132 333.65 26.1965 331.033C23.5797 328.416 22.1081 324.868 22.1046 321.168V301.849C22.1099 298.15 23.5823 294.604 26.1988 291.988C28.8153 289.373 32.3624 287.902 36.0618 287.899H334.689ZM334.689 284.736H36.0618C31.5232 284.736 27.1704 286.539 23.9611 289.749C20.7517 292.958 18.9487 297.311 18.9487 301.849V321.168C18.9479 323.415 19.3899 325.642 20.2495 327.719C21.1091 329.796 22.3695 331.683 23.9587 333.273C25.5479 334.862 27.4347 336.124 29.5114 336.984C31.5881 337.844 33.814 338.287 36.0618 338.287H334.689C336.937 338.287 339.163 337.844 341.24 336.984C343.316 336.124 345.203 334.862 346.792 333.273C348.381 331.683 349.642 329.796 350.501 327.719C351.361 325.642 351.803 323.415 351.802 321.168V301.849C351.802 297.311 349.999 292.958 346.79 289.749C343.581 286.539 339.228 284.736 334.689 284.736Z" fill="#161C24"/>
<path d="M18.9487 301.856H234.46" stroke="#161C24" stroke-width="3.16249" stroke-miterlimit="10"/>
<path d="M18.9487 318.751H309.112" stroke="#161C24" stroke-width="3.16249" stroke-miterlimit="10"/>
<path d="M112.291 453.094L97.1919 481.788" stroke="#161C24" stroke-width="3.16249" stroke-miterlimit="10" stroke-linecap="round"/>
<path d="M86.6218 467.441L83.7234 485.175" stroke="#161C24" stroke-width="3.16249" stroke-miterlimit="10" stroke-linecap="round"/>
<path d="M1.57788 469.983C2.30413 470.702 13.8779 485.168 13.8779 485.168L1.57788 469.983Z" fill="white"/>
<path d="M1.57788 469.983C2.30413 470.702 13.8779 485.168 13.8779 485.168" stroke="#161C24" stroke-width="3.16249" stroke-miterlimit="10" stroke-linecap="round"/>
<path d="M22.1904 444.293L18.9487 485.174" stroke="#161C24" stroke-width="3.16249" stroke-miterlimit="10" stroke-linecap="round"/>
<path d="M467.58 471.878C468.075 472.34 475.997 481.557 475.997 481.557L467.58 471.878Z" fill="white"/>
<path d="M467.58 471.878C468.075 472.34 475.997 481.557 475.997 481.557" stroke="#161C24" stroke-width="2.08632" stroke-miterlimit="10" stroke-linecap="round"/>
<path d="M481.675 455.51L479.464 481.556" stroke="#161C24" stroke-width="2.08632" stroke-miterlimit="10" stroke-linecap="round"/>
<path d="M497.521 476.314C496.986 476.578 487.961 482.375 487.961 482.375L497.521 476.314Z" fill="white"/>
<path d="M497.521 476.314C496.986 476.578 487.961 482.375 487.961 482.375" stroke="#161C24" stroke-width="1.84203" stroke-miterlimit="10" stroke-linecap="round"/>
<path d="M489.288 459.129L484.977 481.53" stroke="#161C24" stroke-width="1.84203" stroke-miterlimit="10" stroke-linecap="round"/>
<path d="M386.9 37.6265L357.236 71.6348L372.064 77.7155V104.686L394.862 66.5576L382.357 60.7806L386.9 37.6265Z" stroke="#FFB63E" stroke-width="1.84203" stroke-miterlimit="10" stroke-linecap="round"/>
<path d="M297.934 50.4546L289.285 112.773L311.231 108.548L331.817 140.014L329.301 78.1247L310.307 80.9373L297.934 50.4546Z" stroke="#FFB63E" stroke-width="2.56828" stroke-miterlimit="10" stroke-linecap="round"/>
<path d="M249.638 60.6286L260.842 58.0405" stroke="#161C24" stroke-width="2.56828" stroke-miterlimit="10" stroke-linecap="round"/>
<path d="M246.186 71.2781L267.94 72.7174" stroke="#161C24" stroke-width="2.56828" stroke-miterlimit="10" stroke-linecap="round"/>
<path d="M238.672 84.8655L251.903 98.0964" stroke="#161C24" stroke-width="2.56828" stroke-miterlimit="10" stroke-linecap="round"/>
<path d="M153.159 25.7092L147.112 22.3486" stroke="#161C24" stroke-width="1.54493" stroke-miterlimit="10" stroke-linecap="round"/>
<path d="M157.048 24.4548L155.021 13.3894" stroke="#161C24" stroke-width="1.54493" stroke-miterlimit="10" stroke-linecap="round"/>
<path d="M472.283 255.435L461.069 244.221L449.856 255.435L461.069 266.648L472.283 255.435Z" stroke="#FFB63E" stroke-width="2.17215" stroke-miterlimit="10" stroke-linecap="round"/>
<path d="M402.442 93.343H424.889" stroke="#161C24" stroke-width="7.23609" stroke-miterlimit="10" stroke-linecap="round"/>
<path d="M461.776 93.343H492.186" stroke="#161C24" stroke-width="7.23609" stroke-miterlimit="10" stroke-linecap="round"/>
<path d="M435.73 93.343H450.942" stroke="#161C24" stroke-width="7.23609" stroke-miterlimit="10" stroke-linecap="round"/>
<path d="M428.494 110.713H458.898" stroke="#161C24" stroke-width="7.23609" stroke-miterlimit="10" stroke-linecap="round"/>
<path d="M402.442 110.713H417.653" stroke="#161C24" stroke-width="7.23609" stroke-miterlimit="10" stroke-linecap="round"/>
<path d="M322.002 17.8206C322.825 14.3207 320.654 10.8165 317.155 9.99372C313.655 9.1709 310.151 11.3411 309.328 14.8409C308.505 18.3408 310.675 21.845 314.175 22.6678C317.675 23.4906 321.179 21.3205 322.002 17.8206Z" fill="#161C24"/>
<path d="M342.444 23.6846C346.522 20.4649 347.218 14.5488 343.999 10.4705C340.779 6.39223 334.863 5.69619 330.785 8.91587C326.706 12.1355 326.01 18.0517 329.23 22.13C332.45 26.2083 338.366 26.9043 342.444 23.6846Z" fill="#161C24"/>
<path d="M475.542 282.881C475.542 282.881 488.364 263.497 513.175 276.873C533.8 287.991 537.419 286.545 551.164 278.589" stroke="#FFB63E" stroke-width="2.17215" stroke-miterlimit="10" stroke-linecap="round"/>
<path d="M475.542 303.863C475.542 303.863 488.364 284.479 513.175 297.855C533.8 308.98 537.419 307.534 551.164 299.572" stroke="#FFB63E" stroke-width="2.17215" stroke-miterlimit="10" stroke-linecap="round"/>
<path d="M30.7004 87.3679C30.7004 87.3679 39.5673 73.9653 56.72 83.2085C70.9743 90.9001 73.4766 89.8966 82.9838 84.3969" stroke="#FFB63E" stroke-width="2.17215" stroke-miterlimit="10" stroke-linecap="round"/>
<path d="M30.7004 101.873C30.7004 101.873 39.5673 88.4704 56.72 97.7202C70.9743 105.412 73.4766 104.408 82.9838 98.9086" stroke="#FFB63E" stroke-width="2.17215" stroke-miterlimit="10" stroke-linecap="round"/>
<path d="M390.326 424.988L400.527 455.042L426.012 470.293L426.335 478.665L317.338 478.704L320.091 424.394L390.326 424.988Z" fill="#161C24"/>
<path d="M107.346 251.712C107.346 251.712 103.246 313.318 138.701 317.662H291.385C291.385 317.662 291.669 433.974 310.703 446.73L394.862 429.121L385.441 346.593L350.706 219.235H198.114L107.346 251.712Z" fill="white" stroke="#161C24" stroke-width="1.4459" stroke-miterlimit="10"/>
<path d="M470.841 328.516L493.995 350.224L523.659 351.67L527.64 358.906L431.762 410.285L408.608 361.078L470.841 328.516Z" fill="#161C24"/>
<path d="M190.363 86.5624C190.363 86.5624 126.764 77.7879 102.164 168.239C102.164 168.239 85.1561 245.301 114.1 256.155C114.1 256.155 178.862 278.946 252.669 231.192L253.758 221.341L305.857 184.52C305.857 184.52 313.027 173.362 317.041 173.877L270.759 169.652C270.759 169.652 234.07 79.0622 190.363 86.5624Z" fill="#161C24"/>
<path d="M344.209 241.683C344.209 241.683 280.643 235.173 254.478 216.72V203.409C254.478 203.409 343.199 154.282 396.889 201.237C396.889 201.237 436.106 236.619 475.905 330.688L394.862 372.83C394.862 372.83 337.693 275.691 334.075 240.237" fill="white"/>
<path d="M344.209 241.683C344.209 241.683 280.643 235.173 254.478 216.72V203.409C254.478 203.409 343.199 154.282 396.889 201.237C396.889 201.237 436.106 236.619 475.905 330.688L394.862 372.83C394.862 372.83 337.693 275.691 334.075 240.237" stroke="#161C24" stroke-width="1.4459" stroke-miterlimit="10"/>
<path d="M181.074 51.9336L181.431 29.6839L187.531 29.2152L200.24 28.238L208.737 29.8556L211.841 30.4366L228.399 33.5859L228.822 33.6651C228.822 33.6651 230.142 38.6828 231.185 44.8229C232.123 50.5867 232.77 57.3673 231.72 61.8898C229.548 71.2915 214.713 98.4268 195.176 93.3629C195.176 93.3629 174.194 91.1907 164.806 65.8644C164.806 65.8644 141.091 58.8198 150.941 42.3075C151.921 40.5992 153.27 39.1316 154.889 38.0121C156.509 36.8925 158.359 36.1495 160.303 35.8373C161.797 35.6311 163.316 35.6982 164.786 36.0353C169.256 37.0389 175.621 42.182 181.074 51.9336Z" fill="white" stroke="#161C24" stroke-width="1.4459" stroke-miterlimit="10"/>
<path d="M181.43 52.1316C182.909 46.4338 186.587 39.5873 191.486 36.5766C195.226 34.3017 199.551 33.172 203.926 33.3268C208.301 33.4817 212.535 34.9144 216.105 37.4481C217.452 38.4112 218.689 39.5181 219.796 40.7493C220.139 40.987 220.456 41.2114 220.826 41.4095C223.932 43.3748 227.479 44.5365 231.145 44.7899C231.68 44.8295 232.222 44.8493 232.763 44.8493C235.974 44.8652 239.15 44.1922 242.079 42.8758C245.007 41.5593 247.619 39.63 249.738 37.218C251.857 34.806 253.434 31.9675 254.363 28.8941C255.291 25.8206 255.55 22.5837 255.121 19.4019C254.692 16.22 253.585 13.1672 251.876 10.4495C250.166 7.73182 247.893 5.41246 245.211 3.64797C242.529 1.88348 239.499 0.714917 236.327 0.22115C233.154 -0.272616 229.913 -0.0800986 226.821 0.785712C223.034 1.89423 219.013 1.92853 215.208 0.884762C210.069 -0.618964 204.562 -0.236405 199.68 1.96339C194.799 4.16319 190.865 8.03533 188.587 12.8811C188.46 13.1405 188.261 13.3583 188.014 13.5091C187.768 13.6599 187.483 13.7375 187.194 13.7328C174.861 13.7328 163.426 23.1212 163.32 35.441C163.307 35.4542 173.435 36.9002 181.43 52.1316Z" fill="#161C24"/>
<path d="M168.734 132.415C169.632 132.653 169.843 132.653 169.804 133.26C169.764 133.868 169.804 135.241 169.804 135.795C169.804 148.102 169.632 160.627 169.276 172.92C169.124 177.423 168.985 181.919 168.747 186.422H166.575C165.763 169.599 165.572 152.638 165.512 135.795V133.26C165.512 133.122 165.473 132.983 165.552 132.838C165.631 132.692 165.922 132.56 166.582 132.415H168.734Z" fill="#F9FAFB"/>
<path d="M251.876 179.945L161.821 186.791L161.696 185.187L251.758 178.38L251.876 179.945Z" fill="#F9FAFB"/>
<path d="M243.624 231.555C239.286 229.911 237.127 223.091 236.064 218.958C235.741 217.888 235.265 215.122 235.034 213.993C234.803 212.864 234.506 210.032 234.374 208.975C233.456 199.474 233.661 189.829 234.189 180.328L236.355 180.506C235.437 190.456 234.717 200.57 235.536 210.553L235.846 213.854C235.939 214.468 236.381 217.413 236.506 217.981C236.632 218.548 236.936 219.876 237.061 220.417C237.992 224.16 239.841 229.918 243.663 231.528L243.624 231.555Z" fill="#F9FAFB"/>
<path d="M233.278 132.158C235.721 141.705 239.22 151.364 245.406 159.168L244.832 159.669C239.761 153.952 236.361 146.986 233.608 139.915C232.703 137.539 231.878 135.162 231.165 132.653L233.271 132.131L233.278 132.158Z" fill="#F9FAFB"/>
<path d="M325.413 184.533C326.878 195.401 318.15 206.981 318.15 206.981L300.984 186.026L310.69 174.749C310.69 174.749 332.622 172.953 330.457 187.412C330.457 187.412 324.667 182.348 319.603 184.52" fill="white"/>
<path d="M325.413 184.533C326.878 195.401 318.15 206.981 318.15 206.981L300.984 186.026L310.69 174.749C310.69 174.749 332.622 172.953 330.457 187.412C330.457 187.412 324.667 182.348 319.603 184.52" stroke="#161C24" stroke-width="0.72625" stroke-miterlimit="10"/>
<path d="M379.664 133.868L327.565 158.468L316.711 212.738L262.803 210.929L257.74 229.746L320.692 237.345L367.364 197.547L379.664 133.868Z" fill="#161C24"/>
<path d="M296.449 217.083C296.449 217.083 299.34 219.248 300.793 219.248C302.245 219.248 297.531 196.457 297.531 196.457L291.028 195.731L287.41 200.801L296.449 217.083Z" fill="white"/>
<path d="M310.023 215.63C310.023 215.63 316.262 220.186 320.158 211.293C325.221 199.712 304.233 182.348 304.233 182.348C304.233 182.348 281.429 171.95 253.032 180.407V227.944C253.032 227.944 268.052 225.771 272.397 214.191C272.397 214.191 276.728 211.095 283.106 219.222C283.701 219.996 284.445 220.644 285.294 221.127C286.144 221.61 287.081 221.919 288.051 222.034C292.501 222.536 299.532 222.074 296.997 213.452C293.379 201.145 288.315 196.807 282.525 194.635" fill="white"/>
<path d="M310.023 215.63C310.023 215.63 316.262 220.186 320.158 211.293C325.221 199.712 304.233 182.348 304.233 182.348C304.233 182.348 281.429 171.95 253.032 180.407V227.944C253.032 227.944 268.052 225.771 272.397 214.191C272.397 214.191 276.728 211.095 283.106 219.222C283.701 219.996 284.445 220.644 285.294 221.127C286.144 221.61 287.081 221.919 288.051 222.034C292.501 222.536 299.532 222.074 296.997 213.452C293.379 201.145 288.315 196.807 282.525 194.635" stroke="#161C24" stroke-width="0.72625" stroke-miterlimit="10"/>
<path d="M295.551 186.686C295.551 186.686 316.454 201.693 310.023 215.63C305.685 225.038 298.621 218.529 298.621 218.529" fill="white"/>
<path d="M295.551 186.686C295.551 186.686 316.454 201.693 310.023 215.63C305.685 225.038 298.621 218.529 298.621 218.529" stroke="#161C24" stroke-width="0.72625" stroke-miterlimit="10"/>
<path d="M158.983 44.8691C158.983 44.8691 169.111 46.315 169.837 55.7233" stroke="#161C24" stroke-width="1.4459" stroke-miterlimit="10"/>
<path d="M201.653 58.6084C201.653 58.6084 205.344 60.0609 207.12 58.6084" stroke="#161C24" stroke-width="1.4459" stroke-miterlimit="10"/>
<path d="M224.088 60.7805C224.088 60.7805 227.778 62.2264 229.548 60.7805" stroke="#161C24" stroke-width="1.4459" stroke-miterlimit="10"/>
<path d="M218.502 59.2554C218.297 60.7805 220.483 80.3166 211.788 77.4248" stroke="#161C24" stroke-width="1.4459" stroke-miterlimit="10"/>
<path d="M427.781 401.24L524.022 354.205" stroke="white" stroke-width="2.89179" stroke-miterlimit="10"/>
<path d="M484.95 342.625L475.542 354.932" stroke="white" stroke-width="2.17215" stroke-miterlimit="10"/>
<path d="M493.309 350.508L484.587 361.805" stroke="white" stroke-width="2.17215" stroke-miterlimit="10"/>
<path d="M317.794 472.155H426.335" stroke="white" stroke-width="2.89179" stroke-miterlimit="10"/>
<path d="M399.2 452.975L386.9 463.11" stroke="white" stroke-width="2.17215" stroke-miterlimit="10"/>
<path d="M379.664 451.529L395.582 444.293" stroke="white" stroke-width="2.17215" stroke-miterlimit="10"/>
<path d="M295.44 230.088L265.27 226.437L265.009 228.593L295.179 232.244L295.44 230.088Z" fill="white"/>
<path d="M354.627 178.337C355.036 174.963 353.92 172.053 352.135 171.837C350.351 171.621 348.573 174.181 348.165 177.555C347.756 180.929 348.872 183.839 350.657 184.055C352.441 184.271 354.219 181.711 354.627 178.337Z" fill="white"/>
</g>
<defs>
<clipPath id="clip0_41_12247">
<rect width="552.247" height="486.759" fill="white"/>
</clipPath>
</defs>
</svg>
