<svg width="16" height="17" viewBox="0 0 16 17" fill="none" xmlns="http://www.w3.org/2000/svg">
<g id="vuesax/broken/video-play">
<g id="video-play">
<path id="Vector" d="M14.6663 10.7917V6.8284C14.6663 3.52568 13.333 2.20459 9.99967 2.20459H5.99967C2.66634 2.20459 1.33301 3.52568 1.33301 6.8284V10.7917C1.33301 14.0944 2.66634 15.4155 5.99967 15.4155H9.99967C13.333 15.4155 14.6663 14.0944 14.6663 10.7917Z" stroke="#292D32" stroke-linecap="round" stroke-linejoin="round"/>
<path id="Vector_2" d="M1.67969 5.58057H14.3197" stroke="#292D32" stroke-linecap="round" stroke-linejoin="round"/>
<path id="Vector_3" d="M5.67969 2.2771V5.48734" stroke="#292D32" stroke-linecap="round" stroke-linejoin="round"/>
<path id="Vector_4" d="M10.3203 2.2771V5.1901" stroke="#292D32" stroke-linecap="round" stroke-linejoin="round"/>
<path id="Vector_5" d="M6.5 10.4284V9.63573C6.5 8.6185 7.22667 8.20235 8.11333 8.71097L8.80667 9.1073L9.5 9.50362C10.3867 10.0122 10.3867 10.8445 9.5 11.3531L8.80667 11.7495L8.11333 12.1458C7.22667 12.6544 6.5 12.2383 6.5 11.221V10.4284V10.4284Z" stroke="#292D32" stroke-miterlimit="10" stroke-linecap="round" stroke-linejoin="round"/>
</g>
</g>
</svg>
