<svg width="30" height="30" viewBox="0 0 30 30" fill="none" xmlns="http://www.w3.org/2000/svg">
<g id="vuesax/outline/document-text">
<g id="document-text">
<path id="Vector" d="M20 28.4375H10C5.4375 28.4375 2.8125 25.8125 2.8125 21.25V8.75C2.8125 4.1875 5.4375 1.5625 10 1.5625H20C24.5625 1.5625 27.1875 4.1875 27.1875 8.75V21.25C27.1875 25.8125 24.5625 28.4375 20 28.4375ZM10 3.4375C6.425 3.4375 4.6875 5.175 4.6875 8.75V21.25C4.6875 24.825 6.425 26.5625 10 26.5625H20C23.575 26.5625 25.3125 24.825 25.3125 21.25V8.75C25.3125 5.175 23.575 3.4375 20 3.4375H10Z" fill="#F44336"/>
<path id="Vector_2" d="M23.125 11.5625H20.625C18.725 11.5625 17.1875 10.025 17.1875 8.125V5.625C17.1875 5.1125 17.6125 4.6875 18.125 4.6875C18.6375 4.6875 19.0625 5.1125 19.0625 5.625V8.125C19.0625 8.9875 19.7625 9.6875 20.625 9.6875H23.125C23.6375 9.6875 24.0625 10.1125 24.0625 10.625C24.0625 11.1375 23.6375 11.5625 23.125 11.5625Z" fill="#F44336"/>
<path id="Vector_3" d="M15 17.1875H10C9.4875 17.1875 9.0625 16.7625 9.0625 16.25C9.0625 15.7375 9.4875 15.3125 10 15.3125H15C15.5125 15.3125 15.9375 15.7375 15.9375 16.25C15.9375 16.7625 15.5125 17.1875 15 17.1875Z" fill="#F44336"/>
<path id="Vector_4" d="M20 22.1875H10C9.4875 22.1875 9.0625 21.7625 9.0625 21.25C9.0625 20.7375 9.4875 20.3125 10 20.3125H20C20.5125 20.3125 20.9375 20.7375 20.9375 21.25C20.9375 21.7625 20.5125 22.1875 20 22.1875Z" fill="#F44336"/>
</g>
</g>
</svg>
