<svg width="30" height="30" viewBox="0 0 30 30" fill="none" xmlns="http://www.w3.org/2000/svg">
<g id="vuesax/outline/calendar-2">
<g id="calendar-2">
<path id="Vector" d="M10 7.1875C9.4875 7.1875 9.0625 6.7625 9.0625 6.25V2.5C9.0625 1.9875 9.4875 1.5625 10 1.5625C10.5125 1.5625 10.9375 1.9875 10.9375 2.5V6.25C10.9375 6.7625 10.5125 7.1875 10 7.1875Z" fill="#0B58F5"/>
<path id="Vector_2" d="M20 7.1875C19.4875 7.1875 19.0625 6.7625 19.0625 6.25V2.5C19.0625 1.9875 19.4875 1.5625 20 1.5625C20.5125 1.5625 20.9375 1.9875 20.9375 2.5V6.25C20.9375 6.7625 20.5125 7.1875 20 7.1875Z" fill="#0B58F5"/>
<path id="Vector_3" d="M25.625 12.3H4.375C3.8625 12.3 3.4375 11.875 3.4375 11.3625C3.4375 10.85 3.8625 10.425 4.375 10.425H25.625C26.1375 10.425 26.5625 10.85 26.5625 11.3625C26.5625 11.875 26.1375 12.3 25.625 12.3Z" fill="#0B58F5"/>
<path id="Vector_4" d="M20 28.4375H10C5.4375 28.4375 2.8125 25.8125 2.8125 21.25V10.625C2.8125 6.0625 5.4375 3.4375 10 3.4375H20C24.5625 3.4375 27.1875 6.0625 27.1875 10.625V21.25C27.1875 25.8125 24.5625 28.4375 20 28.4375ZM10 5.3125C6.425 5.3125 4.6875 7.05 4.6875 10.625V21.25C4.6875 24.825 6.425 26.5625 10 26.5625H20C23.575 26.5625 25.3125 24.825 25.3125 21.25V10.625C25.3125 7.05 23.575 5.3125 20 5.3125H10Z" fill="#0B58F5"/>
<path id="Vector_5" d="M10.625 18.125C10.4625 18.125 10.3 18.0875 10.15 18.025C9.99999 17.9625 9.86251 17.875 9.73751 17.7625C9.62501 17.6375 9.53748 17.5 9.47498 17.35C9.41248 17.2 9.375 17.0375 9.375 16.875C9.375 16.55 9.51251 16.225 9.73751 15.9875C9.86251 15.875 9.99999 15.7875 10.15 15.725C10.375 15.625 10.625 15.6 10.875 15.65C10.95 15.6625 11.025 15.6875 11.1 15.725C11.175 15.75 11.25 15.7875 11.325 15.8375C11.3875 15.8875 11.45 15.9375 11.5125 15.9875C11.5625 16.05 11.625 16.1125 11.6625 16.175C11.7125 16.25 11.75 16.325 11.775 16.4C11.8125 16.475 11.8375 16.55 11.85 16.625C11.8625 16.7125 11.875 16.7875 11.875 16.875C11.875 17.2 11.7375 17.525 11.5125 17.7625C11.275 17.9875 10.95 18.125 10.625 18.125Z" fill="#0B58F5"/>
<path id="Vector_6" d="M15 18.1251C14.675 18.1251 14.35 17.9876 14.1125 17.7626C14.0625 17.7001 14.0125 17.6376 13.9625 17.5751C13.9125 17.5001 13.875 17.4251 13.85 17.3501C13.8125 17.2751 13.7875 17.2001 13.775 17.1251C13.7625 17.0376 13.75 16.9626 13.75 16.8751C13.75 16.7126 13.7875 16.5501 13.85 16.4001C13.9125 16.2501 14 16.1126 14.1125 15.9876C14.4625 15.6376 15.025 15.5251 15.475 15.7251C15.6375 15.7876 15.7625 15.8751 15.8875 15.9876C16.1125 16.2251 16.25 16.5501 16.25 16.8751C16.25 16.9626 16.2375 17.0376 16.225 17.1251C16.2125 17.2001 16.1875 17.2751 16.15 17.3501C16.125 17.4251 16.0875 17.5001 16.0375 17.5751C15.9875 17.6376 15.9375 17.7001 15.8875 17.7626C15.7625 17.8751 15.6375 17.9626 15.475 18.0251C15.325 18.0876 15.1625 18.1251 15 18.1251Z" fill="#0B58F5"/>
<path id="Vector_7" d="M10.625 22.5001C10.4625 22.5001 10.3 22.4626 10.15 22.4001C9.99999 22.3376 9.86251 22.2501 9.73751 22.1376C9.62501 22.0126 9.53748 21.8876 9.47498 21.7251C9.41248 21.5751 9.375 21.4126 9.375 21.2501C9.375 20.9251 9.51251 20.6001 9.73751 20.3626C9.86251 20.2501 9.99999 20.1626 10.15 20.1001C10.6125 19.9001 11.1625 20.0126 11.5125 20.3626C11.5625 20.4251 11.625 20.4876 11.6625 20.5501C11.7125 20.6251 11.75 20.7001 11.775 20.7751C11.8125 20.8501 11.8375 20.9251 11.85 21.0126C11.8625 21.0876 11.875 21.1751 11.875 21.2501C11.875 21.5751 11.7375 21.9001 11.5125 22.1376C11.275 22.3626 10.95 22.5001 10.625 22.5001Z" fill="#0B58F5"/>
</g>
</g>
</svg>
