<svg width="30" height="30" viewBox="0 0 30 30" fill="none" xmlns="http://www.w3.org/2000/svg">
<g id="vuesax/outline/document-text">
<g id="document-text">
<path id="Vector" d="M18.7494 28.4375H11.2494C4.46189 28.4375 1.56189 25.5375 1.56189 18.75V11.25C1.56189 4.4625 4.46189 1.5625 11.2494 1.5625H17.4994C18.0119 1.5625 18.4369 1.9875 18.4369 2.5C18.4369 3.0125 18.0119 3.4375 17.4994 3.4375H11.2494C5.48689 3.4375 3.43689 5.4875 3.43689 11.25V18.75C3.43689 24.5125 5.48689 26.5625 11.2494 26.5625H18.7494C24.5119 26.5625 26.5619 24.5125 26.5619 18.75V12.5C26.5619 11.9875 26.9869 11.5625 27.4994 11.5625C28.0119 11.5625 28.4369 11.9875 28.4369 12.5V18.75C28.4369 25.5375 25.5369 28.4375 18.7494 28.4375Z" fill="#454F5B"/>
<path id="Vector_2" d="M27.4994 13.4374H22.4994C18.2244 13.4374 16.5619 11.7749 16.5619 7.49986V2.49986C16.5619 2.12486 16.7869 1.77486 17.1369 1.63736C17.4869 1.48736 17.8869 1.57486 18.1619 1.83736L28.1619 11.8374C28.4244 12.0999 28.5119 12.5124 28.3619 12.8624C28.2119 13.2124 27.8744 13.4374 27.4994 13.4374ZM18.4369 4.76236V7.49986C18.4369 10.7249 19.2744 11.5624 22.4994 11.5624H25.2369L18.4369 4.76236Z" fill="#454F5B"/>
<path id="Vector_3" d="M16.2506 17.1875H8.75061C8.23811 17.1875 7.81311 16.7625 7.81311 16.25C7.81311 15.7375 8.23811 15.3125 8.75061 15.3125H16.2506C16.7631 15.3125 17.1881 15.7375 17.1881 16.25C17.1881 16.7625 16.7631 17.1875 16.2506 17.1875Z" fill="#454F5B"/>
<path id="Vector_4" d="M13.7506 22.1875H8.75061C8.23811 22.1875 7.81311 21.7625 7.81311 21.25C7.81311 20.7375 8.23811 20.3125 8.75061 20.3125H13.7506C14.2631 20.3125 14.6881 20.7375 14.6881 21.25C14.6881 21.7625 14.2631 22.1875 13.7506 22.1875Z" fill="#454F5B"/>
</g>
</g>
</svg>
