<svg width="36" height="43" viewBox="0 0 36 43" fill="none" xmlns="http://www.w3.org/2000/svg">
<g id="Group">
<g id="Group_2">
<path id="Subtract" fill-rule="evenodd" clip-rule="evenodd" d="M0 10.5779L18.0245 0L36 10.5779V31.5966L18.0832 42.0179L0 31.7043V10.5779ZM19.0621 23.5628H12.2907V27.9368H19.8645V31.3421H8.12221V12.9458H19.4633V16.3511H12.2907V20.1869H19.0621V23.5628ZM35.512 27.3693V11.9673L31.3435 11.9771V19.2084H31.2848C30.6879 18.2886 29.4256 17.7014 27.7719 17.7014C24.5917 17.7014 21.7735 20.3141 21.7931 24.8055C21.7931 28.9545 24.347 31.665 27.4979 31.665C29.2299 31.665 30.8444 30.9018 31.686 29.4046H31.7447L31.9208 31.3617H35.6196C35.5609 30.4712 35.512 28.886 35.512 27.3693ZM31.2946 22.9072C31.3435 23.142 31.3533 23.4258 31.3533 23.6607V25.4024C31.3533 25.7351 31.3337 26.0581 31.2652 26.3418C31.0108 27.5161 30.042 28.338 28.858 28.338C27.126 28.338 26.0203 26.9192 26.0203 24.6686C26.0203 22.5647 26.9793 20.8719 28.8874 20.8719C30.1497 20.8719 31.0597 21.7917 31.2946 22.9072Z" fill="#0B58F5"/>
</g>
</g>
</svg>
